<svg xmlns="http://www.w3.org/2000/svg" width="24" height="24" viewBox="0 0 24 24">
    <g fill="none" fill-rule="evenodd" stroke="#000" stroke-linecap="round" stroke-linejoin="round">
        <path d="M16.42 19.25l1.591 1.59a1 1 0 0 0 1.414 0l1.414-1.414a1 1 0 0 0 0-1.414l-1.589-1.59c.46-.926.796-1.908 1-2.921h2.25a1 1 0 0 0 1-1v-1a1 1 0 0 0-1-1h-2.247a11.8 11.8 0 0 0-1-2.922l1.586-1.589a1 1 0 0 0 0-1.414l-1.415-1.415a1 1 0 0 0-1.414 0L16.42 4.75a11.729 11.729 0 0 0-2.92-1V1.5a1 1 0 0 0-1-1h-1a1 1 0 0 0-1 1v2.248c-1.013.203-1.996.54-2.921 1l-1.59-1.587a1 1 0 0 0-1.414 0L3.16 4.576a1 1 0 0 0 0 1.414l1.59 1.589c-.46.926-.796 1.908-1 2.921H1.5a1 1 0 0 0-1 1v1a1 1 0 0 0 1 1h2.246c.204 1.013.54 1.995 1 2.921l-1.59 1.59a1 1 0 0 0 0 1.414l1.415 1.414a1 1 0 0 0 1.414 0l1.589-1.59M10.5 20.5h3M10.5 22.5h3M12 22.5v1"/>
        <path d="M17.869 12.044A5.714 5.714 0 0 0 12 6.5a5.713 5.713 0 0 0-5.869 5.544 5.725 5.725 0 0 0 4.369 5.323V18.5h3v-1.133a5.725 5.725 0 0 0 4.369-5.323z"/>
    </g>
</svg>
